<?xml version="1.0" encoding="utf-8" ?>
<!DOCTYPE svg PUBLIC "-//W3C//DTD SVG 1.1//EN" "http://www.w3.org/Graphics/SVG/1.1/DTD/svg11.dtd">
<svg xmlns="http://www.w3.org/2000/svg" width="48" height="31" viewBox="0 0 48 31" fill="none"><g clip-path="url('#clip0_657_2562')"><path d="M14.6746 24.8012L14.588 24.8851C13.2285 26.2703 11.6552 27.0021 10.0346 27.0021C6.65003 27.0021 4.19477 24.463 4.19477 20.9607C4.19477 17.4638 6.65003 14.9206 10.0346 14.9206C11.6552 14.9206 13.2285 15.6565 14.588 17.0472L14.6746 17.1297L16.8512 14.4972L16.793 14.4269C14.983 12.2882 12.8105 11.2479 10.1401 11.2479C7.46304 11.2479 5.01184 12.1502 3.24784 13.7748C1.32692 15.5361 0.316406 18.0198 0.316406 20.9607C0.316406 23.9016 1.32692 26.3907 3.24784 28.152C5.01184 29.7861 7.46304 30.6816 10.1401 30.6816C12.8105 30.6816 14.983 29.64 16.793 27.4999L16.8512 27.435L14.6746 24.8012Z" fill="#004685"/><path d="M19.0508 30.3228H22.8953V11.5519H19.0508V30.3228Z" fill="#004685"/><path d="M37.9643 26.2422C36.9375 26.8672 35.9838 27.1823 35.1262 27.1823C33.883 27.1823 33.3203 26.5249 33.3203 25.0639V15.1036H37.2392V11.5701H33.3203V5.72893L29.5528 7.74725V11.5701H26.3008V15.1036H29.5528V25.6984C29.5528 28.5838 31.2627 30.5588 33.8167 30.6102C35.5496 30.6441 36.5939 30.1273 37.227 29.7485L37.2676 29.7228L38.1915 26.1028L37.9643 26.2422Z" fill="#004685"/><path d="M41.1406 30.3228H44.9906V11.5519H41.1406V30.3228Z" fill="#004685"/><path d="M47.2322 8.26142C43.719 3.28597 37.8859 0.318011 31.9514 0.318011C26.0182 0.318011 20.1837 3.28597 16.6774 8.26142L16.4961 8.51709H20.9196L20.9683 8.46433C23.9782 5.35569 27.9093 3.71344 31.9514 3.71344C35.9934 3.71344 39.9218 5.35569 42.9385 8.46433L42.9872 8.51709H47.408L47.2322 8.26142Z" fill="#EE1C25"/></g><defs><clipPath id="clip0_657_2562"><rect width="47.727" height="31" fill="white"/></clipPath></defs></svg>