<?xml version="1.0" encoding="utf-8" ?>
<!DOCTYPE svg PUBLIC "-//W3C//DTD SVG 1.1//EN" "http://www.w3.org/Graphics/SVG/1.1/DTD/svg11.dtd">
<svg xmlns="http://www.w3.org/2000/svg" width="96" height="27" viewBox="0 0 96 27" fill="none"><g clip-path="url('#clip0_657_2507')"><mask id="mask0_657_2507" style="mask-type:luminance" maskUnits="userSpaceOnUse" x="-167" y="-250" width="430" height="608"><path d="M262.637 -249.127H-166.629V357.973H262.637V-249.127Z" fill="white"/></mask><g mask="url('#mask0_657_2507')"><path d="M82.2802 5.93502C81.6124 5.25573 81.2771 4.43582 81.2771 3.47601C81.2771 2.53784 81.6124 1.71577 82.2701 1.03648C82.9378 0.349974 83.7462 -0.000488281 84.6844 -0.000488281C85.6052 -0.000488281 86.4115 0.342763 87.0799 1.0271C87.752 1.70711 88.0938 2.53784 88.0938 3.47601C88.0938 4.43582 87.7585 5.25573 87.0879 5.93502C86.4172 6.61936 85.6045 6.96117 84.6837 6.96117C83.7462 6.96117 82.9378 6.61936 82.2802 5.93502ZM96.0009 13.7858V11.6715C96.0009 9.67328 94.3798 8.04789 92.3801 8.04789H76.9872C74.9875 8.04789 73.3672 9.67328 73.3672 11.6715V19.6333H90.5377V20.8405H73.3672V22.9512C73.3672 24.9508 74.9868 26.5726 76.9872 26.5726H92.3801C94.3798 26.5726 96.0009 24.9508 96.0009 22.9512V14.9915H78.8318V13.7858H96.0009Z" fill="#E30613"/></g><mask id="mask1_657_2507" style="mask-type:luminance" maskUnits="userSpaceOnUse" x="-167" y="-250" width="430" height="608"><path d="M262.637 -249.127H-166.629V357.973H262.637V-249.127Z" fill="white"/></mask><g mask="url('#mask1_657_2507')"><path d="M0 9.70136C0 8.60166 0.492522 8.05145 1.5915 8.05145H11.7203V10.3381C11.7203 11.4378 11.1708 11.9585 10.0711 11.9585H4.63029V15.2864H10.7079V19.0485H4.63029V22.6663H11.8645V24.9515C11.8645 26.0519 11.3158 26.5726 10.2153 26.5726H1.5915C0.492522 26.5726 0 26.0217 0 24.9227V9.70136ZM13.7488 9.70136C13.7488 8.60166 14.2406 8.05145 15.341 8.05145H21.3595C25.5852 8.05145 28.0161 9.99053 28.0161 13.6372C28.0161 16.1546 27.0613 17.775 24.7747 18.7009L28.3918 25.7621C28.5072 26.0224 28.6528 26.2827 28.6528 26.5726H24.6593C23.8199 26.5726 23.4723 26.5726 23.0678 25.7332L19.8256 19.0485H18.3791V26.5726H13.7488V9.70136ZM18.3791 11.9577V15.2857H21.0126C22.3438 15.2857 23.3858 15.1119 23.3858 13.6365C23.3858 12.1892 22.3438 11.9577 21.0126 11.9577H18.3791ZM35.6001 7.90723C39.4494 7.90723 41.4461 8.34134 41.4461 10.1355V11.9585H36.1791C34.7614 11.9585 34.3561 12.3349 34.3561 13.087C34.3561 15.3153 42.4009 14.8523 42.4009 21.1036C42.4009 24.084 40.694 26.7175 35.4847 26.7175C32.0702 26.7175 29.379 26.1673 29.379 24.4893V22.6663H35.6001C36.8735 22.6663 37.4814 22.2603 37.4814 21.3633C37.4814 18.9331 29.4655 19.3953 29.4655 12.9716C29.4655 10.1355 31.3462 7.90723 35.6001 7.90723ZM55.1365 8.05145V10.3958C55.1365 11.4667 54.587 11.9585 53.5162 11.9585H51.2295V26.5726H46.5992V11.9577H42.693V9.61339C42.693 8.54325 43.2424 8.05073 44.3133 8.05073H55.1365V8.05145ZM56.586 9.70136C56.586 8.60166 57.0785 8.05145 58.1782 8.05145H68.3063V10.3381C68.3063 11.4378 67.7568 11.9585 66.6571 11.9585H61.2163V15.2864H67.2938V19.0485H61.2163V22.6663H68.4512V24.9515C68.4512 26.0519 67.901 26.5726 66.802 26.5726H58.1782C57.0785 26.5726 56.586 26.0224 56.586 24.9227V9.70136Z" fill="#00497B"/></g></g><defs><clipPath id="clip0_657_2507"><rect width="96" height="26.7181" fill="white"/></clipPath></defs></svg>