<?xml version="1.0" encoding="utf-8" ?>
<!DOCTYPE svg PUBLIC "-//W3C//DTD SVG 1.1//EN" "http://www.w3.org/Graphics/SVG/1.1/DTD/svg11.dtd">
<svg xmlns="http://www.w3.org/2000/svg" width="132" height="41" viewBox="0 0 132 41" fill="none"><g clip-path="url('#clip0_657_2538')"><path d="M131.876 20.7137C131.575 20.4029 129.49 18.6142 129.251 18.4468C129.007 18.2794 128.834 18.3176 128.634 18.5185C127.648 19.5229 124.406 22.5024 119.953 23.3537C119.193 21.1394 118.743 19.0159 118.609 18.2937C118.265 16.4715 118.691 15.0607 118.815 14.4055C123.727 13.8794 128.026 10.7611 129.968 6.21285C130.035 6.05024 130.102 5.72503 129.691 5.54329C129.279 5.36633 127.208 4.58198 126.821 4.44807C126.434 4.31416 126.29 4.57242 126.233 4.71111C124.678 8.25981 121.068 10.5555 117.088 10.455C112.454 10.345 108.532 6.98763 107.753 2.56372C107.724 2.40111 107.638 2.06155 107.208 2.12372C106.777 2.18589 104.472 2.44416 104.065 2.50155C103.659 2.55894 103.688 2.73111 103.759 3.08503C104.563 8.03981 108.116 12.0811 112.765 13.7072C112.416 15.3668 112.033 18.9489 113.626 23.7411C107.844 24.5733 104.147 27.9498 102.999 29.1407C102.779 29.3655 102.669 29.5711 102.927 29.8102C103.19 30.0494 104.874 31.4268 105.471 31.9576C106.069 32.4885 106.146 32.1394 106.438 31.862C107.7 30.6472 111.354 27.7011 116.878 27.9307C124.855 28.2702 130.594 22.775 131.943 21.3546C132.12 21.1824 132.082 20.905 131.876 20.7137Z" fill="#64B32C"/><path d="M116.929 8.23554C119.211 8.23554 121.061 6.3855 121.061 4.10337C121.061 1.82123 119.211 -0.0288086 116.929 -0.0288086C114.647 -0.0288086 112.797 1.82123 112.797 4.10337C112.797 6.3855 114.647 8.23554 116.929 8.23554Z" fill="#64B32C"/><path d="M24.6755 17.2267V27.208H20.285V17.8437C20.285 15.9259 19.1468 14.7206 17.425 14.7206C15.6698 14.7206 14.4646 15.9546 14.4646 17.7432V27.2032H10.0741V17.8437C10.0741 15.9259 8.93589 14.7206 7.21415 14.7206C5.45893 14.7206 4.25372 15.9259 4.25372 17.8437V27.208H-0.136719V11.1146H3.89502V12.5446C4.96632 11.4398 6.53024 10.7559 8.44806 10.7559C10.6289 10.7559 12.2215 11.6024 13.2259 13.0659C14.4311 11.6693 16.3155 10.7559 18.592 10.7559C22.4276 10.7559 24.6755 13.3576 24.6755 17.2267Z" fill="#546467"/><path d="M42.5568 20.6419H31.2746C31.7959 22.6889 33.4555 23.8271 35.7942 23.8271C37.5494 23.8271 38.9794 23.2102 40.2802 22.201L42.1024 25.1902C40.2802 26.7206 38.1376 27.5958 35.665 27.5958C30.562 27.5958 26.8555 23.9228 26.8555 19.1736C26.8555 14.4245 30.5285 10.7515 35.2776 10.7515C39.7972 10.7515 42.8533 14.0658 42.8533 18.2315C42.8485 19.1449 42.6859 20.0871 42.5568 20.6419ZM31.2746 17.5523H38.592C38.5585 15.5054 36.9659 14.3002 35.115 14.3002C33.2594 14.3002 31.7624 15.5341 31.2746 17.5523Z" fill="#546467"/><path d="M54.9794 11.1145V14.9837H53.8077C51.2729 14.9837 49.4842 16.2845 49.4842 19.178V27.208H45.0938V11.1145H49.1255V13.0324C50.1968 11.6645 51.7942 10.9185 53.5494 10.9185C54.1329 10.9185 54.5585 10.9806 54.9794 11.1145Z" fill="#546467"/><path d="M68.3114 27.2082L61.8358 18.2982V27.2082H57.4453V6.70996H61.8358V17.973L67.6227 11.11H72.8262L66.7762 18.2313L73.314 27.2034H68.3114V27.2082Z" fill="#546467"/><path d="M74.4531 20.1204V11.1147H78.8436V20.4791C78.8436 22.3634 80.1779 23.5687 81.8997 23.5687C83.5592 23.5687 84.8936 22.3634 84.8936 20.4791V11.1147H89.284V20.1204C89.284 24.6734 86.0988 27.6004 81.9044 27.6004C77.6431 27.6004 74.4531 24.6734 74.4531 20.1204Z" fill="#546467"/><path d="M102.319 11.1145V14.9837H101.148C98.6127 14.9837 96.824 16.2845 96.824 19.178V27.208H92.4336V11.1145H96.4653V13.0324C97.5366 11.6645 99.134 10.9185 100.889 10.9185C101.473 10.9185 101.898 10.9806 102.319 11.1145Z" fill="#546467"/><path d="M6.87035 32.1533L3.5034 40.0494H3.16383L-0.203125 32.1533H0.810788L3.34079 38.2464L5.86122 32.1533H6.87035Z" fill="#546467"/><path d="M9.29297 32.1533H14.2717V32.9759H10.2112V35.3529H13.3199V36.1755H10.2112V39.0929H14.4104V39.9155H9.29297V32.1533Z" fill="#546467"/><path d="M21.9297 39.9203L19.5192 36.6585H17.8597V39.9203H16.9414V32.1533H19.6723C21.2027 32.1533 22.1545 33.0955 22.1545 34.4011C22.1545 35.4485 21.5423 36.2616 20.5188 36.5533L23.001 39.9203H21.9297ZM17.8597 35.8359H19.6388C20.6623 35.8359 21.2027 35.2477 21.2027 34.4107C21.2027 33.5881 20.6623 32.9759 19.6388 32.9759H17.8597V35.8359Z" fill="#546467"/><path d="M24.6602 38.3806L25.3441 37.8736C25.8128 38.591 26.511 39.2032 27.5106 39.2032C28.4289 39.2032 29.0745 38.6963 29.0745 37.9071C29.0745 37.1897 28.5436 36.9076 27.7784 36.5441L26.908 36.1328C26.0949 35.7454 25.1528 35.2049 25.1528 34.0523C25.1528 32.8184 26.2336 32.0293 27.4962 32.0293C28.5532 32.0293 29.4475 32.5841 29.9306 33.3493L29.261 33.8563C28.8354 33.2345 28.1897 32.8806 27.4819 32.8806C26.7645 32.8806 26.1045 33.2441 26.1045 34.0093C26.1045 34.7171 26.6449 34.9754 27.3528 35.3149L28.2136 35.7263C29.3423 36.2667 30.0262 36.831 30.0262 37.8928C30.0262 39.1984 28.9549 40.0593 27.5202 40.0593C26.2815 40.0497 25.258 39.4041 24.6602 38.3806Z" fill="#546467"/><path d="M32.8008 32.1533H33.719V39.9203H32.8008V32.1533Z" fill="#546467"/><path d="M36.5664 36.037C36.5664 33.7653 38.3551 32.0244 40.6029 32.0244C42.0138 32.0244 43.1808 32.7083 43.8264 33.6935L43.1425 34.234C42.5638 33.3875 41.6934 32.8709 40.6125 32.8709C38.8573 32.8709 37.5181 34.2244 37.5181 36.037C37.5181 37.8496 38.8573 39.2031 40.6125 39.2031C41.6934 39.2031 42.5638 38.6866 43.1425 37.8401L43.8264 38.3805C43.2047 39.3705 42.0138 40.0496 40.6029 40.0496C38.3551 40.0496 36.5664 38.3088 36.5664 36.037Z" fill="#546467"/><path d="M46.4766 32.1533H47.3948V35.3529H51.747V32.1533H52.6653V39.9203H51.747V36.1803H47.3948V39.9203H46.4766V32.1533Z" fill="#546467"/><path d="M55.7891 32.1533H60.7678V32.9759H56.7073V35.3529H59.8112V36.1755H56.7073V39.0929H60.9065V39.9155H55.7891V32.1533Z" fill="#546467"/><path d="M68.4258 39.9203L66.0153 36.6585H64.3558V39.9203H63.4375V32.1533H66.1684C67.6988 32.1533 68.6505 33.0955 68.6505 34.4011C68.6505 35.4485 68.0384 36.2616 67.0149 36.5533L69.4971 39.9203H68.4258ZM64.3558 35.8359H66.1301C67.1536 35.8359 67.694 35.2477 67.694 34.4107C67.694 33.5881 67.1536 32.9759 66.1301 32.9759H64.3558V35.8359Z" fill="#546467"/><path d="M71.4062 36.8355V32.1533H72.3245V36.8977C72.3245 38.4616 73.2906 39.2029 74.5006 39.2029C75.701 39.2029 76.6528 38.4616 76.6528 36.8977V32.1533H77.571V36.8355C77.571 38.9064 76.251 40.0494 74.5006 40.0494C72.7119 40.0494 71.4062 38.9111 71.4062 36.8355Z" fill="#546467"/><path d="M86.7981 32.1535V40.0496H86.4681L81.5276 34.0953V39.9205H80.6094V32.0244H80.9394L85.8798 37.9883V32.1535H86.7981Z" fill="#546467"/><path d="M89.418 36.037C89.418 33.7653 91.1971 32.0244 93.4545 32.0244C94.784 32.0244 95.9032 32.6222 96.6206 33.6122L95.9271 34.1527C95.3484 33.354 94.5162 32.8709 93.4545 32.8709C91.6562 32.8709 90.3697 34.234 90.3697 36.0227C90.3697 37.8353 91.6754 39.2222 93.4975 39.2222C94.6645 39.2222 95.5684 38.6435 96.0849 37.8353V36.7879H93.4354V35.9653H97.0032V38.0362C96.3193 39.2366 95.0041 40.0496 93.4497 40.0496C91.1827 40.0496 89.418 38.2992 89.418 36.037Z" fill="#546467"/></g><defs><clipPath id="clip0_657_2538"><rect width="132" height="40.1739" fill="white"/></clipPath></defs></svg>