<?xml version="1.0" encoding="utf-8" ?>
<!DOCTYPE svg PUBLIC "-//W3C//DTD SVG 1.1//EN" "http://www.w3.org/Graphics/SVG/1.1/DTD/svg11.dtd">
<svg xmlns="http://www.w3.org/2000/svg" width="102" height="40" viewBox="0 0 102 40" fill="none"><path d="M15.5686 15.105V4.31943H3.99219C3.99219 8.06943 4.27723 11.7079 4.79942 15.105H15.5686Z" fill="#FF0000"/><path d="M15.5687 18.5022H5.41797C7.3631 27.7149 11.121 34.5753 15.5687 36.0078V18.5022Z" fill="#FF0000"/><path d="M18.9648 15.105V4.31943H30.5413C30.5413 8.06943 30.2562 11.7079 29.7341 15.105H18.9648Z" fill="#FF0000"/><path d="M18.9648 18.5022H29.1155C27.1704 27.7149 23.4125 34.5753 18.9648 36.0078V18.5022Z" fill="#FF0000"/><path d="M46.112 18.3687C44.7704 18.3687 43.5844 18.067 42.554 17.4634C41.5235 16.8598 40.7219 16.0182 40.1487 14.9392C39.5752 13.8599 39.2891 12.6068 39.2891 11.1802C39.2891 10.0949 39.4628 9.11054 39.8104 8.22614C40.158 7.34229 40.6455 6.58632 41.2739 5.95794C41.9014 5.33012 42.6394 4.84539 43.4869 4.50374C44.3344 4.16265 45.2523 3.99168 46.2401 3.99168C47.0324 3.99168 47.7611 4.09562 48.4255 4.30263C49.0902 4.51022 49.6665 4.77835 50.1543 5.10733L49.7701 7.44876H49.6606C49.2699 7.144 48.8128 6.90009 48.2886 6.71701C47.7642 6.53421 47.1786 6.44267 46.5328 6.44267C45.6667 6.44267 44.8955 6.62885 44.2189 7.00064C43.5418 7.37271 43.0081 7.90927 42.6183 8.61032C42.2276 9.31165 42.033 10.1682 42.033 11.1802C42.033 12.1558 42.2186 13.0002 42.5907 13.7137C42.9625 14.4268 43.4897 14.9727 44.173 15.3507C44.8558 15.7287 45.6545 15.9177 46.5694 15.9177C47.2152 15.9177 47.8405 15.8261 48.4441 15.6433C49.0477 15.4605 49.5626 15.2349 49.9895 14.9665H50.0994L49.6972 17.4907C48.6607 18.076 47.4653 18.3687 46.112 18.3687Z" fill="#292929"/><path d="M52.2529 8.8389H54.8134V18.0396H52.2529V8.8389ZM53.533 7.35738C53.0452 7.35738 52.6489 7.2081 52.3441 6.90926C52.0394 6.6107 51.8867 6.23553 51.8867 5.78431C51.8867 5.32099 52.0394 4.943 52.3441 4.65036C52.6489 4.35771 53.0452 4.21125 53.533 4.21125C54.033 4.21125 54.4323 4.35771 54.7315 4.65036C55.03 4.943 55.1796 5.32099 55.1796 5.78431C55.1796 6.23553 55.03 6.6107 54.7315 6.90926C54.4323 7.2081 54.033 7.35738 53.533 7.35738Z" fill="#292929"/><path d="M62.1994 18.0396H59.3825C58.9431 17.4298 58.6108 16.7315 58.3854 15.9451C58.1598 15.1585 58.0472 14.2656 58.0472 13.2654V10.9789H56.4375V8.8389H58.0472V6.11357H60.5717V8.8389H62.7298L62.3636 10.9789H60.5717V13.0641C60.5717 14.1008 60.7145 15.0033 61.0009 15.7714C61.2877 16.5394 61.687 17.2532 62.1994 17.9114V18.0396Z" fill="#292929"/><path d="M64.7746 22.6128V22.4849L67.189 18.0401C66.6888 17.2351 66.2105 16.3267 65.7534 15.3145C65.296 14.3025 64.8904 13.2384 64.5369 12.1227C64.1829 11.0068 63.9026 9.91253 63.6953 8.83942H66.3297C66.5001 9.88831 66.7747 11.0133 67.1524 12.2142C67.5301 13.4155 67.9757 14.583 68.4877 15.717H68.6159C69.1401 14.5585 69.5944 13.4155 69.9785 12.2872C70.3627 11.1594 70.6464 10.01 70.8292 8.83942H73.1382C72.8453 10.4249 72.6247 11.9579 72.0454 13.4397C71.4663 14.9213 70.7559 16.4549 69.9146 18.0401L67.4819 22.6128H64.7746Z" fill="#292929"/><path d="M83.0846 16.0277C83.7677 16.0277 84.3253 15.799 84.7583 15.3419C85.1912 14.8844 85.4078 14.2476 85.4078 13.4305C85.4078 12.6134 85.1912 11.9732 84.7583 11.5096C84.3253 11.0466 83.7677 10.8148 83.0846 10.8148C82.4137 10.8148 81.8594 11.0466 81.4203 11.5096C80.9815 11.9732 80.7618 12.6134 80.7618 13.4305C80.7618 14.2476 80.9815 14.8844 81.4203 15.3419C81.8594 15.799 82.4137 16.0277 83.0846 16.0277ZM83.0846 18.2593C82.1456 18.2593 81.3043 18.0641 80.5607 17.674C79.8166 17.2839 79.2313 16.7259 78.8048 16.0004C78.3776 15.2751 78.1641 14.418 78.1641 13.4305C78.1641 12.4427 78.3776 11.5862 78.8048 10.8604C79.2313 10.1351 79.8166 9.57406 80.5607 9.17777C81.3043 8.78147 82.1456 8.58318 83.0846 8.58318C84.0237 8.58318 84.865 8.78147 85.6089 9.17777C86.3527 9.57406 86.938 10.1351 87.365 10.8604C87.7917 11.5862 88.0052 12.4427 88.0052 13.4305C88.0052 14.418 87.7917 15.2751 87.365 16.0004C86.938 16.7259 86.3527 17.2839 85.6089 17.674C84.865 18.0641 84.0237 18.2593 83.0846 18.2593Z" fill="#292929"/><path d="M90.7835 18.0396V10.9789H89.0273V8.8389H90.7835V8.01589C90.7835 6.74786 91.1156 5.78431 91.7803 5.12579C92.4447 4.46728 93.2891 4.13802 94.3135 4.13802C94.716 4.13802 95.0726 4.17463 95.3835 4.24787C95.6948 4.32082 95.7505 4.40644 95.9823 4.50389L95.6351 6.58901H95.5252C95.2323 6.43072 95.1241 6.35129 94.7706 6.35129C94.3321 6.35129 93.9843 6.49775 93.7285 6.7904C93.4719 7.08304 93.3443 7.52186 93.3443 8.10743V8.8389H95.7038L95.3376 10.9789H93.3443V18.0396H90.7835Z" fill="#292929"/><path d="M46.6081 35.5205H43.6631C43.1995 34.6184 42.7392 33.6154 42.2818 32.5116C41.8247 31.408 41.3915 30.2527 40.9831 29.0455C40.5747 27.8383 40.2026 26.619 39.8675 25.387C39.5317 24.1556 39.2548 22.9605 39.0352 21.8021H41.8337C42.1875 23.741 42.648 25.6557 43.215 27.5459C43.7819 29.4358 44.4191 31.2407 45.1266 32.9597H45.2361C45.9431 31.2407 46.5808 29.4358 47.1478 27.5459C47.7147 25.6557 48.1688 23.741 48.5101 21.8021H51.236C51.0161 22.9605 50.7389 24.1556 50.4035 25.387C50.068 26.619 49.6959 27.8383 49.2878 29.0455C48.8791 30.2527 48.4465 31.408 47.9891 32.5116C47.5319 33.6154 47.0712 34.6184 46.6081 35.5205Z" fill="#292929"/><path d="M52.6276 26.3201H55.1884V35.5205H52.6276V26.3201ZM53.9077 24.8383C53.4202 24.8383 53.0239 24.6893 52.7194 24.3902C52.4141 24.0917 52.2617 23.7168 52.2617 23.2653C52.2617 22.8022 52.4141 22.424 52.7194 22.1313C53.0239 21.8387 53.4202 21.6922 53.9077 21.6922C54.408 21.6922 54.8073 21.8387 55.1059 22.1313C55.405 22.424 55.554 22.8022 55.554 23.2653C55.554 23.7168 55.405 24.0917 55.1059 24.3902C54.8073 24.6893 54.408 24.8383 53.9077 24.8383Z" fill="#292929"/><path d="M61.3063 28.1491C60.7332 28.1491 60.2603 28.3228 59.8888 28.6704C59.5164 29.0177 59.2877 29.5393 59.2026 30.2339L63.1171 29.7951C63.0318 29.2225 62.8304 28.8048 62.5135 28.5422C62.1961 28.2803 61.7939 28.1491 61.3063 28.1491ZM61.4528 35.7397C60.4524 35.7397 59.5899 35.5448 58.8644 35.1545C58.1385 34.7644 57.5809 34.2098 57.1908 33.4901C56.8004 32.7705 56.6055 31.9295 56.6055 30.9659C56.6055 29.9536 56.8091 29.085 57.2181 28.3595C57.6268 27.6339 58.1904 27.0759 58.9097 26.6858C59.6294 26.2955 60.4464 26.1003 61.361 26.1003C62.7149 26.1003 63.7692 26.5152 64.5254 27.3444C65.2814 28.1736 65.6594 29.3193 65.6594 30.7831V31.3498L59.3305 32.0633C59.5012 32.6243 59.8065 33.0206 60.2451 33.2521C60.6844 33.4839 61.2204 33.6 61.8547 33.6C62.4521 33.6 63.0495 33.5206 63.6475 33.362C64.2449 33.2037 64.6961 33.0268 65.0011 32.8316H65.129L64.7631 35.0266C64.4218 35.2094 63.9463 35.3742 63.3365 35.5203C62.7265 35.6665 62.0987 35.7397 61.4528 35.7397Z" fill="#292929"/><path d="M67.2188 35.5205V26.3201H69.5419V27.8746H69.6514C69.883 27.3383 70.2643 26.9085 70.7947 26.5852C71.325 26.2624 71.9436 26.1004 72.6511 26.1004C73.7242 26.1004 74.5686 26.4573 75.1846 27.1705C75.8 27.8842 76.1082 28.8748 76.1082 30.1428V35.5205H73.5473V30.4721C73.5473 29.0336 72.9558 28.3137 71.7732 28.3137C71.1755 28.3137 70.6939 28.5272 70.3283 28.9542C69.9624 29.3809 69.7793 29.9482 69.7793 30.6551V35.5205H67.2188Z" fill="#292929"/><path d="M78.2188 35.5205V26.3201H80.5419V27.8746H80.6517C80.8832 27.3383 81.2643 26.9085 81.7947 26.5852C82.3251 26.2624 82.9441 26.1004 83.6517 26.1004C84.7242 26.1004 85.5692 26.4573 86.1846 27.1705C86.8006 27.8842 87.1085 28.8748 87.1085 30.1428V35.5205H84.5479V30.4721C84.5479 29.0336 83.9558 28.3137 82.7737 28.3137C82.176 28.3137 81.6944 28.5272 81.3283 28.9542C80.9624 29.3809 80.7799 29.9482 80.7799 30.6551V35.5205H78.2188Z" fill="#292929"/><path d="M91.1521 32.7769C91.1521 33.0453 91.2403 33.2709 91.4175 33.4537C91.5938 33.6368 91.8842 33.7281 92.2861 33.7281C92.9204 33.7281 93.4479 33.5424 93.8687 33.1701C94.2895 32.7983 94.4997 32.3077 94.4997 31.6979V31.4785L92.5607 31.6979C92.0729 31.7466 91.7163 31.8533 91.4904 32.0181C91.2648 32.1826 91.1521 32.4358 91.1521 32.7769ZM91.4631 35.667C90.573 35.667 89.8658 35.4293 89.3416 34.9538C88.8172 34.4781 88.5547 33.8137 88.5547 32.9597C88.5547 32.0942 88.8594 31.4114 89.4692 30.9112C90.079 30.4115 90.902 30.1127 91.9391 30.015L94.4997 29.7589V29.7406C94.4997 29.2407 94.3625 28.8627 94.0881 28.6064C93.8135 28.3504 93.3108 28.2225 92.579 28.2225C92.0301 28.2225 91.4727 28.2867 90.9054 28.4146C90.3384 28.5424 89.8838 28.692 89.5425 28.8627H89.4329L89.7988 26.686C90.1889 26.5277 90.6705 26.3903 91.2437 26.2742C91.8166 26.1585 92.4202 26.1005 93.0545 26.1005C94.4326 26.1005 95.4443 26.4238 96.091 27.0702C96.7371 27.7166 97.0605 28.6554 97.0605 29.8871V32.8135C97.0605 33.289 97.094 33.7588 97.1613 34.2221C97.2281 34.6854 97.3407 35.0755 97.4996 35.3927V35.5205H95.1035C95.03 35.338 94.963 35.109 94.9021 34.835C94.8407 34.5604 94.8044 34.3077 94.7926 34.0756H94.6827C94.4506 34.5268 94.0484 34.9054 93.4753 35.2099C92.9021 35.5146 92.2315 35.667 91.4631 35.667Z" fill="#292929"/></svg>